# Blender 4.3.2
# www.blender.org
o pipe
v 0.500000 0.000000 0.187500
v 0.500000 -0.132582 0.132582
v 0.500000 -0.187500 0.000000
v 0.500000 -0.132582 -0.132582
v 0.500000 -0.000000 -0.187500
v 0.500000 0.132583 -0.132582
v 0.500000 0.187500 -0.000000
v 0.500000 0.132583 0.132582
v -0.500000 0.000000 0.187500
v -0.500000 -0.132583 0.132583
v -0.500000 -0.187500 0.000000
v -0.500000 -0.132583 -0.132582
v -0.500000 -0.000000 -0.187500
v -0.500000 0.132582 -0.132582
v -0.500000 0.187500 -0.000000
v -0.500000 0.132582 0.132583
v 0.250000 0.187500 -0.000000
v 0.375000 -0.000000 -0.187500
v -0.250000 0.187500 -0.000000
v 0.250000 -0.132582 -0.132582
v 0.375000 0.000000 0.187500
v -0.250000 -0.132583 -0.132582
v 0.250000 -0.187500 0.000000
v 0.375000 -0.132582 0.132582
v -0.250000 -0.187500 0.000000
v 0.250000 0.132583 0.132582
v 0.375000 0.132583 -0.132582
v -0.250000 0.132582 0.132583
v 0.250000 0.132583 -0.132582
v 0.375000 0.132583 0.132582
v -0.250000 0.132582 -0.132582
v 0.250000 -0.132582 0.132582
v 0.375000 -0.187500 0.000000
v -0.250000 -0.132583 0.132583
v 0.250000 0.000000 0.187500
v 0.375000 -0.132582 -0.132582
v -0.250000 0.000000 0.187500
v 0.250000 -0.000000 -0.187500
v 0.375000 0.187500 -0.000000
v -0.250000 -0.000000 -0.187500
v -0.375000 0.187500 -0.000000
v -0.375000 -0.132583 -0.132582
v -0.375000 -0.187500 0.000000
v -0.375000 0.132582 0.132583
v -0.375000 0.132582 -0.132582
v -0.375000 -0.132583 0.132583
v -0.375000 0.000000 0.187500
v -0.375000 -0.000000 -0.187500
vn -0.0000 0.9239 0.3827
vn 1.0000 -0.0000 -0.0000
vn -1.0000 -0.0000 -0.0000
vn -0.0000 -0.3827 -0.9239
vn -0.0000 -0.9239 0.3827
vn -0.0000 -0.3827 0.9239
vn -0.0000 0.9239 -0.3827
vn -0.0000 0.3827 -0.9239
vn -0.0000 0.3827 0.9239
vn -0.0000 -0.9239 -0.3827
vt 0.125000 0.875000
vt 0.250000 1.000000
vt 0.125000 1.000000
vt 0.569606 0.055394
vt 0.305394 0.319606
vt 0.250674 0.187500
vt 0.437500 0.000674
vt 0.437500 0.374326
vt 0.305394 0.055394
vt -0.000000 1.000000
vt 0.000000 0.875000
vt 0.000000 0.125000
vt 0.125000 0.000000
vt 0.125000 0.125000
vt 0.250000 0.875000
vt 0.125000 0.875000
vt 0.624326 0.187500
vt 0.569606 0.319606
vt 0.250000 0.875000
vt 0.000000 0.875000
vt 0.250000 0.000000
vt 0.250000 0.125000
vt 0.250000 0.125000
vt 0.250000 0.125000
vt 0.250000 0.125000
vt 0.125000 0.125000
vt 0.000000 0.125000
vt 0.000000 0.000000
vt 0.125000 0.125000
vt 0.000000 0.125000
vt 0.000000 0.125000
vt 0.250000 0.875000
vt 0.000000 0.875000
s 1
f 39/1/1 8/2/1 7/3/1
f 4/4/2 8/5/2 1/6/2
f 11/7/3 15/8/3 12/9/3
f 18/1/4 4/10/4 36/11/4
f 46/12/5 11/13/5 43/14/5
f 24/15/6 1/3/6 21/16/6
f 1/6/2 2/9/2 3/7/2
f 3/7/2 4/4/2 1/6/2
f 5/17/2 6/18/2 7/8/2
f 7/8/2 8/5/2 5/17/2
f 39/1/7 6/10/7 27/11/7
f 27/19/8 5/3/8 18/1/8
f 30/20/9 1/3/9 8/10/9
f 43/14/10 12/21/10 42/22/10
f 11/7/3 10/4/3 9/17/3
f 9/17/3 16/18/3 15/8/3
f 15/8/3 14/5/3 13/6/3
f 13/6/3 12/9/3 15/8/3
f 36/23/10 23/13/10 20/21/10
f 15/13/1 44/24/1 41/14/1
f 44/11/9 37/3/9 28/10/9
f 17/13/1 30/25/1 39/26/1
f 45/19/8 40/3/8 48/1/8
f 38/13/4 36/27/4 20/28/4
f 19/3/7 45/11/7 41/1/7
f 35/13/6 24/25/6 21/29/6
f 47/1/6 34/2/6 37/3/6
f 17/13/7 27/27/7 29/28/7
f 24/30/5 23/13/5 33/26/5
f 29/21/8 18/26/8 38/13/8
f 48/1/4 22/10/4 42/11/4
f 26/28/9 21/29/9 30/31/9
f 41/1/1 28/2/1 19/3/1
f 3/3/10 36/19/10 4/2/10
f 2/10/5 33/1/5 3/3/5
f 13/13/4 42/12/4 12/28/4
f 9/13/6 46/22/6 47/14/6
f 41/14/7 14/28/7 15/13/7
f 14/21/8 48/14/8 13/13/8
f 16/28/9 47/14/9 44/27/9
f 25/3/10 42/19/10 22/2/10
f 34/10/5 43/1/5 25/3/5
f 39/1/1 30/15/1 8/2/1
f 4/4/2 5/17/2 8/5/2
f 11/7/3 9/17/3 15/8/3
f 18/1/4 5/3/4 4/10/4
f 46/12/5 10/28/5 11/13/5
f 24/15/6 2/2/6 1/3/6
f 39/1/7 7/3/7 6/10/7
f 27/19/8 6/2/8 5/3/8
f 30/20/9 21/16/9 1/3/9
f 43/14/10 11/13/10 12/21/10
f 36/23/10 33/26/10 23/13/10
f 15/13/1 16/21/1 44/24/1
f 44/11/9 47/1/9 37/3/9
f 17/13/1 26/21/1 30/25/1
f 45/19/8 31/2/8 40/3/8
f 38/13/4 18/26/4 36/27/4
f 19/3/7 31/10/7 45/11/7
f 35/13/6 32/21/6 24/25/6
f 47/1/6 46/19/6 34/2/6
f 17/13/7 39/26/7 27/27/7
f 24/30/5 32/28/5 23/13/5
f 29/21/8 27/23/8 18/26/8
f 48/1/4 40/3/4 22/10/4
f 26/28/9 35/13/9 21/29/9
f 41/1/1 44/32/1 28/2/1
f 3/3/10 33/1/10 36/19/10
f 2/10/5 24/33/5 33/1/5
f 13/13/4 48/14/4 42/12/4
f 9/13/6 10/21/6 46/22/6
f 41/14/7 45/12/7 14/28/7
f 14/21/8 45/22/8 48/14/8
f 16/28/9 9/13/9 47/14/9
f 25/3/10 43/1/10 42/19/10
f 34/10/5 46/11/5 43/1/5
o body
v -0.250000 -0.062500 0.468750
v -0.250000 0.062500 0.468750
v -0.250000 -0.062500 0.343750
v -0.250000 0.062500 0.343750
v -0.125000 -0.062500 0.468750
v -0.125000 0.062500 0.468750
v -0.125000 -0.062500 0.343750
v -0.125000 0.062500 0.343750
v 0.250000 0.187500 -0.000000
v -0.250000 0.187500 -0.000000
v 0.250000 -0.132582 -0.132582
v -0.250000 -0.132583 -0.132582
v 0.250000 -0.187500 0.000000
v -0.250000 -0.187500 0.000000
v 0.250000 0.132583 0.132582
v -0.250000 0.132582 0.132583
v 0.250000 0.132583 -0.132582
v -0.250000 0.132582 -0.132582
v 0.250000 -0.132582 0.132582
v -0.250000 -0.132583 0.132583
v 0.250000 0.000000 0.187500
v -0.250000 0.000000 0.187500
v 0.250000 -0.000000 -0.187500
v -0.250000 -0.000000 -0.187500
v 0.250000 0.212500 -0.000000
v -0.250000 0.212500 -0.000000
v 0.250000 -0.150260 -0.150260
v -0.250000 -0.150260 -0.150260
v 0.250000 -0.212500 -0.000000
v -0.250000 -0.212500 -0.000000
v 0.250000 0.150260 0.150260
v -0.250000 0.150260 0.150260
v 0.250000 0.150260 -0.150260
v -0.250000 0.150260 -0.150260
v 0.250000 -0.150260 0.150260
v -0.250000 -0.150260 0.150260
v 0.250000 0.000000 0.212500
v -0.250000 0.000000 0.212500
v 0.250000 -0.000000 -0.212500
v -0.250000 -0.000000 -0.212500
v 0.000000 0.187500 -0.000000
v 0.000000 0.140625 0.375000
v 0.132583 0.132583 0.000000
v 0.099437 0.099437 0.375000
v 0.187500 -0.000000 0.000000
v 0.140625 0.000000 0.375000
v 0.132583 -0.132583 0.000000
v 0.099437 -0.099437 0.375000
v 0.000000 -0.187500 0.000000
v 0.000000 -0.140625 0.375000
v -0.132583 -0.132583 0.000000
v -0.099437 -0.099437 0.375000
v -0.187500 -0.000000 0.000000
v -0.140625 0.000000 0.375000
v -0.132583 0.132583 0.000000
v -0.099437 0.099437 0.375000
v 0.000000 0.187500 0.312500
v 0.000000 0.187500 0.500000
v 0.132583 0.132582 0.312500
v 0.132583 0.132583 0.500000
v 0.187500 -0.000000 0.312500
v 0.187500 0.000000 0.500000
v 0.132583 -0.132583 0.312500
v 0.132583 -0.132582 0.500000
v 0.000000 -0.187500 0.312500
v 0.000000 -0.187500 0.500000
v -0.132583 -0.132583 0.312500
v -0.132583 -0.132582 0.500000
v -0.187500 -0.000000 0.312500
v -0.187500 0.000000 0.500000
v -0.132583 0.132582 0.312500
v -0.132583 0.132583 0.500000
v -0.468750 -0.093750 0.500000
v -0.468750 0.093750 0.500000
v -0.468750 -0.093750 0.312500
v -0.468750 0.093750 0.312500
v -0.200000 -0.093750 0.500000
v -0.200000 0.093750 0.500000
v -0.200000 -0.093750 0.312500
v -0.200000 0.093750 0.312500
vn -0.0000 -0.0000 -1.0000
vn -0.0000 -0.0000 1.0000
vn -0.0000 -1.0000 -0.0000
vn -0.0000 1.0000 -0.0000
vn 1.0000 -0.0000 -0.0000
vn -1.0000 -0.0000 -0.0000
vn -0.0000 0.3827 0.9239
vn -0.0000 0.3827 -0.9239
vn -0.0000 0.9239 -0.3827
vn -0.0000 -0.3827 0.9239
vn -0.0000 -0.9239 0.3827
vn -0.0000 -0.3827 -0.9239
vn -0.0000 0.9239 0.3827
vn -0.0000 -0.9239 -0.3827
vn 0.3802 0.9178 0.1147
vn 0.9178 0.3802 0.1147
vn 0.9178 -0.3802 0.1147
vn 0.3802 -0.9178 0.1147
vn -0.3802 -0.9178 0.1147
vn -0.9178 -0.3802 0.1147
vn -0.9178 0.3802 0.1147
vn -0.3802 0.9178 0.1147
vn 0.3827 -0.9239 -0.0000
vn -0.9239 0.3827 -0.0000
vn -0.9239 -0.3827 -0.0000
vn -0.3827 -0.9239 -0.0000
vn 0.9239 0.3827 -0.0000
vn 0.9239 -0.3827 -0.0000
vn 0.3827 0.9239 -0.0000
vn -0.3827 0.9239 -0.0000
vt 0.187500 0.937500
vt 0.125000 1.000000
vt 0.125000 0.937500
vt 0.000000 0.937500
vt 0.062500 1.000000
vt 0.000000 1.000000
vt 0.062500 0.937500
vt 0.000000 0.500000
vt 0.062500 0.500000
vt 0.000000 0.750000
vt 0.062500 0.750000
vt 0.250000 1.000000
vt 0.187500 1.000000
vt 0.250000 0.937500
s 0
f 52/34/11 55/35/11 51/36/11
f 54/34/12 49/35/12 53/36/12
f 55/34/13 49/35/13 51/36/13
f 52/34/14 54/35/14 56/36/14
s 1
f 69/37/15 79/38/15 85/39/15
f 68/40/16 86/39/16 70/37/16
f 65/40/15 73/39/15 57/37/15
f 72/40/16 76/39/16 60/37/16
f 70/40/16 80/39/16 64/37/16
f 68/37/16 78/38/16 84/39/16
f 60/40/16 78/39/16 62/37/16
f 58/40/16 82/39/16 66/37/16
f 80/41/17 85/39/17 79/39/17
f 82/42/18 87/39/18 88/41/18
f 73/39/19 82/41/19 74/41/19
f 86/41/20 83/38/20 85/39/20
f 83/39/21 78/41/21 77/39/21
f 88/41/22 75/39/22 76/41/22
f 74/41/23 79/38/23 73/39/23
f 77/39/24 76/42/24 75/38/24
f 71/37/15 75/38/15 87/39/15
f 72/37/16 82/38/16 88/39/16
f 58/37/16 80/38/16 74/39/16
f 69/40/15 83/39/15 67/37/15
f 61/40/15 75/39/15 59/37/15
f 61/37/15 83/38/15 77/39/15
f 71/40/15 81/39/15 65/37/15
f 63/37/15 73/38/15 79/39/15
s 0
f 90/38/25 91/43/25 89/44/25
f 92/38/26 93/43/26 91/44/26
f 94/38/27 95/43/27 93/44/27
f 96/38/28 97/43/28 95/44/28
f 98/38/29 99/43/29 97/44/29
f 100/38/30 101/43/30 99/44/30
f 102/38/31 103/43/31 101/44/31
f 103/44/32 90/39/32 89/43/32
f 114/34/33 111/45/33 112/46/33
f 117/47/34 120/46/34 119/34/34
f 117/34/35 116/45/35 118/46/35
f 115/34/36 114/45/36 116/46/36
f 107/47/37 110/46/37 109/34/37
f 110/47/12 118/46/12 112/34/12
f 110/34/12 108/47/12 106/45/12
f 106/34/12 120/47/12 110/45/12
f 118/34/12 116/47/12 114/45/12
f 114/34/12 112/47/12 118/45/12
f 112/34/38 109/45/38 110/46/38
f 105/47/39 108/46/39 107/34/39
f 119/34/11 105/47/11 107/45/11
f 107/34/11 109/47/11 111/45/11
f 111/34/11 113/47/11 115/45/11
f 115/34/11 117/47/11 119/45/11
f 119/47/40 106/46/40 105/34/40
f 115/47/11 107/46/11 111/34/11
f 122/40/16 123/39/16 121/37/16
f 124/40/11 127/39/11 123/37/11
f 128/40/15 125/39/15 127/37/15
f 126/40/12 121/39/12 125/37/12
f 127/40/13 121/39/13 123/37/13
f 124/40/14 126/39/14 128/37/14
f 52/34/11 56/46/11 55/35/11
f 54/34/12 50/46/12 49/35/12
f 55/34/13 53/46/13 49/35/13
f 52/34/14 50/46/14 54/35/14
s 1
f 69/37/15 63/40/15 79/38/15
f 68/40/16 84/38/16 86/39/16
f 65/40/15 81/38/15 73/39/15
f 72/40/16 88/38/16 76/39/16
f 70/40/16 86/38/16 80/39/16
f 68/37/16 62/40/16 78/38/16
f 60/40/16 76/38/16 78/39/16
f 58/40/16 74/38/16 82/39/16
f 80/41/17 86/41/17 85/39/17
f 82/42/18 81/38/18 87/39/18
f 73/39/19 81/39/19 82/41/19
f 86/41/20 84/42/20 83/38/20
f 83/39/21 84/41/21 78/41/21
f 88/41/22 87/39/22 75/39/22
f 74/41/23 80/42/23 79/38/23
f 77/39/24 78/41/24 76/42/24
f 71/37/15 59/40/15 75/38/15
f 72/37/16 66/40/16 82/38/16
f 58/37/16 64/40/16 80/38/16
f 69/40/15 85/38/15 83/39/15
f 61/40/15 77/38/15 75/39/15
f 61/37/15 67/40/15 83/38/15
f 71/40/15 87/38/15 81/39/15
f 63/37/15 57/40/15 73/38/15
s 0
f 90/38/25 92/39/25 91/43/25
f 92/38/26 94/39/26 93/43/26
f 94/38/27 96/39/27 95/43/27
f 96/38/28 98/39/28 97/43/28
f 98/38/29 100/39/29 99/43/29
f 100/38/30 102/39/30 101/43/30
f 102/38/31 104/39/31 103/43/31
f 103/44/32 104/38/32 90/39/32
f 114/34/33 113/47/33 111/45/33
f 117/47/34 118/45/34 120/46/34
f 117/34/35 115/47/35 116/45/35
f 115/34/36 113/47/36 114/45/36
f 107/47/37 108/45/37 110/46/37
f 110/47/12 120/45/12 118/46/12
f 112/34/38 111/47/38 109/45/38
f 105/47/39 106/45/39 108/46/39
f 119/47/40 120/45/40 106/46/40
f 115/47/11 119/45/11 107/46/11
f 122/40/16 124/38/16 123/39/16
f 124/40/11 128/38/11 127/39/11
f 128/40/15 126/38/15 125/39/15
f 126/40/12 122/38/12 121/39/12
f 127/40/13 125/38/13 121/39/13
f 124/40/14 122/38/14 126/39/14
