# Blender 4.3.2
# www.blender.org
o body
v -0.187500 0.148438 0.234375
v -0.187500 0.148438 0.265625
v -0.170927 0.141573 0.234375
v -0.170927 0.141573 0.265625
v -0.164063 0.125000 0.234375
v -0.164063 0.125000 0.265625
v -0.170927 0.108427 0.234375
v -0.170927 0.108427 0.265625
v -0.187500 0.101562 0.234375
v -0.187500 0.101562 0.265625
v -0.204073 0.108427 0.234375
v -0.204073 0.108427 0.265625
v -0.210938 0.125000 0.234375
v -0.210938 0.125000 0.265625
v -0.204073 0.141573 0.234375
v -0.204073 0.141573 0.265625
v 0.187500 0.148438 0.234375
v 0.187500 0.148438 0.265625
v 0.204073 0.141573 0.234375
v 0.204073 0.141573 0.265625
v 0.210937 0.125000 0.234375
v 0.210937 0.125000 0.265625
v 0.204073 0.108427 0.234375
v 0.204073 0.108427 0.265625
v 0.187500 0.101562 0.234375
v 0.187500 0.101562 0.265625
v 0.170927 0.108427 0.234375
v 0.170927 0.108427 0.265625
v 0.164062 0.125000 0.234375
v 0.164062 0.125000 0.265625
v 0.170927 0.141573 0.234375
v 0.170927 0.141573 0.265625
v -0.187500 -0.101562 0.234375
v -0.187500 -0.101562 0.265625
v -0.170927 -0.108427 0.234375
v -0.170927 -0.108427 0.265625
v -0.164063 -0.125000 0.234375
v -0.164063 -0.125000 0.265625
v -0.170927 -0.141573 0.234375
v -0.170927 -0.141573 0.265625
v -0.187500 -0.148438 0.234375
v -0.187500 -0.148438 0.265625
v -0.204073 -0.141573 0.234375
v -0.204073 -0.141573 0.265625
v -0.210938 -0.125000 0.234375
v -0.210938 -0.125000 0.265625
v -0.204073 -0.108427 0.234375
v -0.204073 -0.108427 0.265625
v 0.187500 -0.101562 0.234375
v 0.187500 -0.101562 0.265625
v 0.204073 -0.108427 0.234375
v 0.204073 -0.108427 0.265625
v 0.210937 -0.125000 0.234375
v 0.210937 -0.125000 0.265625
v 0.204073 -0.141573 0.234375
v 0.204073 -0.141573 0.265625
v 0.187500 -0.148438 0.234375
v 0.187500 -0.148438 0.265625
v 0.170927 -0.141573 0.234375
v 0.170927 -0.141573 0.265625
v 0.164062 -0.125000 0.234375
v 0.164062 -0.125000 0.265625
v 0.170927 -0.108427 0.234375
v 0.170927 -0.108427 0.265625
v 0.000000 0.046875 0.234375
v 0.000000 0.046875 0.265625
v 0.033146 0.033146 0.234375
v 0.033146 0.033146 0.265625
v 0.046875 0.000000 0.234375
v 0.046875 0.000000 0.265625
v 0.033146 -0.033146 0.234375
v 0.033146 -0.033146 0.265625
v 0.000000 -0.046875 0.234375
v 0.000000 -0.046875 0.265625
v -0.033146 -0.033146 0.234375
v -0.033146 -0.033146 0.265625
v -0.046875 0.000000 0.234375
v -0.046875 0.000000 0.265625
v -0.033146 0.033146 0.234375
v -0.033146 0.033146 0.265625
v 0.250000 0.187500 -0.000000
v -0.250000 0.187500 -0.000000
v 0.250000 -0.132582 -0.132582
v -0.250000 -0.132583 -0.132582
v 0.250000 -0.187500 0.000000
v -0.250000 -0.187500 0.000000
v 0.250000 0.132583 0.132582
v -0.250000 0.132582 0.132583
v 0.250000 0.132583 -0.132582
v -0.250000 0.132582 -0.132582
v 0.250000 -0.132582 0.132582
v -0.250000 -0.132583 0.132583
v 0.250000 0.000000 0.187500
v -0.250000 0.000000 0.187500
v 0.250000 -0.000000 -0.187500
v -0.250000 -0.000000 -0.187500
v 0.250000 0.212500 -0.000000
v -0.250000 0.212500 -0.000000
v 0.250000 -0.150260 -0.150260
v -0.250000 -0.150260 -0.150260
v 0.250000 -0.212500 0.000000
v -0.250000 -0.212500 0.000000
v 0.250000 0.150260 0.150260
v -0.250000 0.150260 0.150260
v 0.250000 0.150260 -0.150260
v -0.250000 0.150260 -0.150260
v 0.250000 -0.150260 0.150260
v -0.250000 -0.150260 0.150260
v 0.250000 0.000000 0.212500
v -0.250000 0.000000 0.212500
v 0.250000 -0.000000 -0.212500
v -0.250000 -0.000000 -0.212500
v -0.250000 -0.187500 0.250000
v -0.250000 0.187500 0.250000
v -0.250000 -0.187500 0.062500
v -0.250000 0.187500 0.062500
v 0.250000 -0.187500 0.250000
v 0.250000 0.187500 0.250000
v 0.250000 -0.187500 0.062500
v 0.250000 0.187500 0.062500
vn -0.0000 -0.0000 1.0000
vn 0.9239 -0.3826 -0.0000
vn -0.3827 0.9239 -0.0000
vn -0.9239 -0.3827 -0.0000
vn -0.3827 -0.9239 -0.0000
vn 0.3827 -0.9239 -0.0000
vn 0.3827 0.9239 -0.0000
vn -0.9239 0.3827 -0.0000
vn 0.9239 0.3826 -0.0000
vn 0.9239 -0.3827 -0.0000
vn 0.9239 0.3827 -0.0000
vn 1.0000 -0.0000 -0.0000
vn -1.0000 -0.0000 -0.0000
vn -0.0000 0.3827 0.9239
vn -0.0000 0.3827 -0.9239
vn -0.0000 0.9239 -0.3827
vn -0.0000 -0.3827 0.9239
vn -0.0000 -0.9239 0.3827
vn -0.0000 -0.3827 -0.9239
vn -0.0000 0.9239 0.3827
vn -0.0000 -0.9239 -0.3827
vn -0.0000 -1.0000 -0.0000
vn -0.0000 1.0000 -0.0000
vt 0.062500 0.937500
vt 0.125000 0.937500
vt 0.125000 1.000000
vt 0.062500 1.000000
vt 0.062500 0.812500
vt 0.000000 0.875000
vt 0.000000 0.812500
vt 0.062500 0.875000
vt 0.000000 0.937500
vt 0.000000 1.000000
vt 0.000000 0.500000
vt 0.062500 0.500000
s 1
f 10/1/1 8/2/1 6/3/1
f 5/2/2 8/4/2 7/1/2
f 15/2/3 2/4/3 1/1/3
f 11/2/4 14/4/4 13/1/4
f 12/1/5 9/3/5 10/4/5
f 10/1/6 7/3/6 8/4/6
f 6/1/1 4/2/1 2/3/1
f 2/1/1 16/2/1 6/3/1
f 16/1/1 14/2/1 6/3/1
f 14/1/1 12/2/1 6/3/1
f 12/1/1 10/2/1 6/3/1
f 1/2/7 4/4/7 3/1/7
f 13/2/8 16/4/8 15/1/8
f 3/2/9 6/4/9 5/1/9
f 26/1/1 24/2/1 22/3/1
f 23/1/2 22/3/2 24/4/2
f 31/2/3 18/4/3 17/1/3
f 27/2/4 30/4/4 29/1/4
f 27/2/5 26/4/5 28/1/5
f 25/2/6 24/4/6 26/1/6
f 22/1/1 20/2/1 18/3/1
f 18/1/1 32/2/1 22/3/1
f 32/1/1 30/2/1 22/3/1
f 30/1/1 28/2/1 22/3/1
f 28/1/1 26/2/1 22/3/1
f 17/2/7 20/4/7 19/1/7
f 29/2/8 32/4/8 31/1/8
f 19/2/9 22/4/9 21/1/9
f 42/1/1 40/2/1 38/3/1
f 37/2/2 40/4/2 39/1/2
f 47/2/3 34/4/3 33/1/3
f 43/2/4 46/4/4 45/1/4
f 43/2/5 42/4/5 44/1/5
f 41/2/6 40/4/6 42/1/6
f 38/1/1 36/2/1 34/3/1
f 34/1/1 48/2/1 38/3/1
f 48/1/1 46/2/1 38/3/1
f 46/1/1 44/2/1 38/3/1
f 44/1/1 42/2/1 38/3/1
f 33/2/7 36/4/7 35/1/7
f 45/2/8 48/4/8 47/1/8
f 35/2/9 38/4/9 37/1/9
f 58/1/1 56/2/1 54/3/1
f 53/2/2 56/4/2 55/1/2
f 63/2/3 50/4/3 49/1/3
f 59/2/4 62/4/4 61/1/4
f 59/2/5 58/4/5 60/1/5
f 57/2/6 56/4/6 58/1/6
f 54/1/1 52/2/1 50/3/1
f 50/1/1 64/2/1 54/3/1
f 64/1/1 62/2/1 54/3/1
f 62/1/1 60/2/1 54/3/1
f 60/1/1 58/2/1 54/3/1
f 49/2/7 52/4/7 51/1/7
f 61/2/8 64/4/8 63/1/8
f 51/2/9 54/4/9 53/1/9
f 78/5/1 70/6/1 66/7/1
f 77/5/8 80/6/8 79/7/8
f 65/5/3 80/6/3 66/7/3
f 71/5/6 74/6/6 73/7/6
f 69/5/10 72/6/10 71/7/10
f 70/7/1 68/5/1 66/8/1
f 66/7/1 80/5/1 78/8/1
f 78/7/1 76/5/1 74/8/1
f 74/7/1 72/5/1 70/8/1
f 75/5/5 74/6/5 76/7/5
f 75/5/4 78/6/4 77/7/4
f 67/5/11 70/6/11 69/7/11
f 65/5/7 68/6/7 67/7/7
f 93/9/12 103/4/12 109/10/12
f 92/1/13 110/10/13 94/9/13
f 89/1/12 97/10/12 81/9/12
f 96/1/13 100/10/13 84/9/13
f 94/1/13 104/10/13 88/9/13
f 92/9/13 102/4/13 108/10/13
f 84/1/13 102/10/13 86/9/13
f 82/1/13 106/10/13 90/9/13
f 104/11/14 109/10/14 103/10/14
f 106/12/15 111/10/15 112/11/15
f 97/10/16 106/11/16 98/11/16
f 110/11/17 107/4/17 109/10/17
f 107/10/18 102/11/18 101/10/18
f 112/11/19 99/10/19 100/11/19
f 98/11/20 103/4/20 97/10/20
f 101/10/21 100/12/21 99/4/21
f 95/9/12 99/4/12 111/10/12
f 96/9/13 106/4/13 112/10/13
f 82/9/13 104/4/13 98/10/13
f 93/1/12 107/10/12 91/9/12
f 85/1/12 99/10/12 83/9/12
f 85/9/12 107/4/12 101/10/12
f 95/1/12 105/10/12 89/9/12
f 87/9/12 97/4/12 103/10/12
f 114/1/13 115/10/13 113/9/13
f 120/1/12 117/10/12 119/9/12
f 119/11/22 113/4/22 115/10/22
f 116/11/23 118/4/23 120/10/23
f 5/2/2 6/3/2 8/4/2
f 15/2/3 16/3/3 2/4/3
f 11/2/4 12/3/4 14/4/4
f 12/1/5 11/2/5 9/3/5
f 10/1/6 9/2/6 7/3/6
f 1/2/7 2/3/7 4/4/7
f 13/2/8 14/3/8 16/4/8
f 3/2/9 4/3/9 6/4/9
f 23/1/2 21/2/2 22/3/2
f 31/2/3 32/3/3 18/4/3
f 27/2/4 28/3/4 30/4/4
f 27/2/5 25/3/5 26/4/5
f 25/2/6 23/3/6 24/4/6
f 17/2/7 18/3/7 20/4/7
f 29/2/8 30/3/8 32/4/8
f 19/2/9 20/3/9 22/4/9
f 37/2/2 38/3/2 40/4/2
f 47/2/3 48/3/3 34/4/3
f 43/2/4 44/3/4 46/4/4
f 43/2/5 41/3/5 42/4/5
f 41/2/6 39/3/6 40/4/6
f 33/2/7 34/3/7 36/4/7
f 45/2/8 46/3/8 48/4/8
f 35/2/9 36/3/9 38/4/9
f 53/2/2 54/3/2 56/4/2
f 63/2/3 64/3/3 50/4/3
f 59/2/4 60/3/4 62/4/4
f 59/2/5 57/3/5 58/4/5
f 57/2/6 55/3/6 56/4/6
f 49/2/7 50/3/7 52/4/7
f 61/2/8 62/3/8 64/4/8
f 51/2/9 52/3/9 54/4/9
f 78/5/1 74/8/1 70/6/1
f 77/5/8 78/8/8 80/6/8
f 65/5/3 79/8/3 80/6/3
f 71/5/6 72/8/6 74/6/6
f 69/5/10 70/8/10 72/6/10
f 75/5/5 73/8/5 74/6/5
f 75/5/4 76/8/4 78/6/4
f 67/5/11 68/8/11 70/6/11
f 65/5/7 66/8/7 68/6/7
f 93/9/12 87/1/12 103/4/12
f 92/1/13 108/4/13 110/10/13
f 89/1/12 105/4/12 97/10/12
f 96/1/13 112/4/13 100/10/13
f 94/1/13 110/4/13 104/10/13
f 92/9/13 86/1/13 102/4/13
f 84/1/13 100/4/13 102/10/13
f 82/1/13 98/4/13 106/10/13
f 104/11/14 110/11/14 109/10/14
f 106/12/15 105/4/15 111/10/15
f 97/10/16 105/10/16 106/11/16
f 110/11/17 108/12/17 107/4/17
f 107/10/18 108/11/18 102/11/18
f 112/11/19 111/10/19 99/10/19
f 98/11/20 104/12/20 103/4/20
f 101/10/21 102/11/21 100/12/21
f 95/9/12 83/1/12 99/4/12
f 96/9/13 90/1/13 106/4/13
f 82/9/13 88/1/13 104/4/13
f 93/1/12 109/4/12 107/10/12
f 85/1/12 101/4/12 99/10/12
f 85/9/12 91/1/12 107/4/12
f 95/1/12 111/4/12 105/10/12
f 87/9/12 81/1/12 97/4/12
f 114/1/13 116/4/13 115/10/13
f 120/1/12 118/4/12 117/10/12
f 119/11/22 117/12/22 113/4/22
f 116/11/23 114/12/23 118/4/23
o pipe
v 0.500000 0.000000 0.187500
v 0.500000 -0.132582 0.132582
v 0.500000 -0.187500 0.000000
v 0.500000 -0.132582 -0.132582
v 0.500000 -0.000000 -0.187500
v 0.500000 0.132583 -0.132582
v 0.500000 0.187500 -0.000000
v 0.500000 0.132583 0.132582
v -0.500000 0.000000 0.187500
v -0.500000 -0.132583 0.132583
v -0.500000 -0.187500 0.000000
v -0.500000 -0.132583 -0.132582
v -0.500000 -0.000000 -0.187500
v -0.500000 0.132582 -0.132582
v -0.500000 0.187500 -0.000000
v -0.500000 0.132582 0.132583
v 0.250000 0.187500 -0.000000
v 0.375000 -0.000000 -0.187500
v -0.250000 0.187500 -0.000000
v 0.250000 -0.132582 -0.132582
v 0.375000 0.000000 0.187500
v -0.250000 -0.132583 -0.132582
v 0.250000 -0.187500 0.000000
v 0.375000 -0.132582 0.132582
v -0.250000 -0.187500 0.000000
v 0.250000 0.132583 0.132582
v 0.375000 0.132583 -0.132582
v -0.250000 0.132582 0.132583
v 0.250000 0.132583 -0.132582
v 0.375000 0.132583 0.132582
v -0.250000 0.132582 -0.132582
v 0.250000 -0.132582 0.132582
v 0.375000 -0.187500 0.000000
v -0.250000 -0.132583 0.132583
v 0.250000 0.000000 0.187500
v 0.375000 -0.132582 -0.132582
v -0.250000 0.000000 0.187500
v 0.250000 -0.000000 -0.187500
v 0.375000 0.187500 -0.000000
v -0.250000 -0.000000 -0.187500
v -0.375000 0.187500 -0.000000
v -0.375000 -0.132583 -0.132582
v -0.375000 -0.187500 0.000000
v -0.375000 0.132582 0.132583
v -0.375000 0.132582 -0.132582
v -0.375000 -0.132583 0.132583
v -0.375000 0.000000 0.187500
v -0.375000 -0.000000 -0.187500
v -0.250000 -0.187500 0.250000
v -0.250000 0.187500 0.250000
v 0.250000 -0.187500 0.250000
v 0.250000 0.187500 0.250000
vn -0.0000 0.9239 0.3827
vn 1.0000 -0.0000 -0.0000
vn -1.0000 -0.0000 -0.0000
vn -0.0000 -0.3827 -0.9239
vn -0.0000 -0.9239 0.3827
vn -0.0000 -0.3827 0.9239
vn -0.0000 0.9239 -0.3827
vn -0.0000 0.3827 -0.9239
vn -0.0000 0.3827 0.9239
vn -0.0000 -0.9239 -0.3827
vn -0.0000 -0.0000 1.0000
vt 0.125000 0.875000
vt 0.250000 1.000000
vt 0.125000 1.000000
vt 0.569606 0.055394
vt 0.305394 0.319606
vt 0.250674 0.187500
vt 0.437500 0.000674
vt 0.437500 0.374326
vt 0.305394 0.055394
vt -0.000000 1.000000
vt 0.000000 0.875000
vt 0.000000 0.125000
vt 0.125000 0.000000
vt 0.125000 0.125000
vt 0.250000 0.875000
vt 0.624326 0.187500
vt 0.569606 0.319606
vt 0.250000 0.000000
vt 0.250000 0.125000
vt 0.000000 0.000000
vt 0.187500 0.500000
vt 0.125000 0.562500
vt 0.125000 0.500000
vt 0.187500 0.562500
s 1
f 159/13/24 128/14/24 127/15/24
f 124/16/25 128/17/25 121/18/25
f 131/19/26 135/20/26 132/21/26
f 138/13/27 124/22/27 156/23/27
f 166/24/28 131/25/28 163/26/28
f 144/27/29 121/15/29 141/13/29
f 121/18/25 122/21/25 123/19/25
f 123/19/25 124/16/25 121/18/25
f 125/28/25 126/29/25 127/20/25
f 127/20/25 128/17/25 125/28/25
f 159/13/30 126/22/30 147/23/30
f 147/27/31 125/15/31 138/13/31
f 150/23/32 121/15/32 128/22/32
f 163/26/33 132/30/33 162/31/33
f 131/19/26 130/16/26 129/28/26
f 129/28/26 136/29/26 135/20/26
f 135/20/26 134/17/26 133/18/26
f 133/18/26 132/21/26 135/20/26
f 156/31/33 143/25/33 140/30/33
f 135/25/24 164/31/24 161/26/24
f 164/23/32 157/15/32 148/22/32
f 137/25/24 150/31/24 159/26/24
f 165/27/31 160/15/31 168/13/31
f 158/25/27 156/24/27 140/32/27
f 139/15/30 165/23/30 161/13/30
f 155/25/29 144/31/29 141/26/29
f 167/13/29 154/14/29 157/15/29
f 137/25/30 147/24/30 149/32/30
f 144/24/28 143/25/28 153/26/28
f 149/30/31 138/26/31 158/25/31
f 168/13/27 142/22/27 162/23/27
f 146/32/32 141/26/32 150/24/32
f 161/13/24 148/14/24 139/15/24
f 123/15/33 156/27/33 124/14/33
f 122/22/28 153/13/28 123/15/28
f 133/25/27 162/24/27 132/32/27
f 129/25/29 166/31/29 167/26/29
f 161/26/30 134/32/30 135/25/30
f 134/30/31 168/26/31 133/25/31
f 136/32/32 167/26/32 164/24/32
f 145/15/33 162/27/33 142/14/33
f 154/22/28 163/13/28 145/15/28
f 172/33/34 169/34/34 171/35/34
f 159/13/24 150/27/24 128/14/24
f 124/16/25 125/28/25 128/17/25
f 131/19/26 129/28/26 135/20/26
f 138/13/27 125/15/27 124/22/27
f 166/24/28 130/32/28 131/25/28
f 144/27/29 122/14/29 121/15/29
f 159/13/30 127/15/30 126/22/30
f 147/27/31 126/14/31 125/15/31
f 150/23/32 141/13/32 121/15/32
f 163/26/33 131/25/33 132/30/33
f 156/31/33 153/26/33 143/25/33
f 135/25/24 136/30/24 164/31/24
f 164/23/32 167/13/32 157/15/32
f 137/25/24 146/30/24 150/31/24
f 165/27/31 151/14/31 160/15/31
f 158/25/27 138/26/27 156/24/27
f 139/15/30 151/22/30 165/23/30
f 155/25/29 152/30/29 144/31/29
f 167/13/29 166/27/29 154/14/29
f 137/25/30 159/26/30 147/24/30
f 144/24/28 152/32/28 143/25/28
f 149/30/31 147/31/31 138/26/31
f 168/13/27 160/15/27 142/22/27
f 146/32/32 155/25/32 141/26/32
f 161/13/24 164/27/24 148/14/24
f 123/15/33 153/13/33 156/27/33
f 122/22/28 144/23/28 153/13/28
f 133/25/27 168/26/27 162/24/27
f 129/25/29 130/30/29 166/31/29
f 161/26/30 165/24/30 134/32/30
f 134/30/31 165/31/31 168/26/31
f 136/32/32 129/25/32 167/26/32
f 145/15/33 163/13/33 162/27/33
f 154/22/28 166/23/28 163/13/28
f 172/33/34 170/36/34 169/34/34
o valve
v -0.062500 -0.050000 0.331250
v -0.062500 0.050000 0.331250
v -0.062500 -0.050000 0.306250
v -0.062500 0.050000 0.306250
v 0.062500 -0.050000 0.331250
v 0.062500 0.050000 0.331250
v 0.062500 -0.050000 0.306250
v 0.062500 0.050000 0.306250
v -0.116965 -0.050000 0.277924
v -0.133035 -0.050000 0.297076
v -0.133035 0.050000 0.297076
v -0.116965 0.050000 0.277924
v 0.125000 0.050000 0.368750
v 0.125000 -0.050000 0.368750
v 0.125000 -0.050000 0.393750
v 0.125000 0.050000 0.393750
v 0.387500 0.050000 0.368750
v 0.437500 0.000000 0.368750
v 0.422855 0.035355 0.368750
v 0.437500 0.000000 0.368750
v 0.387500 -0.050000 0.368750
v 0.422855 -0.035355 0.368750
v 0.387500 -0.050000 0.393750
v 0.437500 0.000000 0.393750
v 0.422855 -0.035355 0.393750
v 0.437500 0.000000 0.393750
v 0.387500 0.050000 0.393750
v 0.422855 0.035355 0.393750
v 0.000000 0.035156 0.187500
v 0.000000 0.035156 0.375000
v 0.024859 0.024859 0.187500
v 0.024859 0.024859 0.375000
v 0.035156 0.000000 0.187500
v 0.035156 0.000000 0.375000
v 0.024859 -0.024859 0.187500
v 0.024859 -0.024859 0.375000
v 0.000000 -0.035156 0.187500
v 0.000000 -0.035156 0.375000
v -0.024859 -0.024859 0.187500
v -0.024859 -0.024859 0.375000
v -0.035156 0.000000 0.187500
v -0.035156 0.000000 0.375000
v -0.024859 0.024859 0.187500
v -0.024859 0.024859 0.375000
vn -0.0000 1.0000 -0.0000
vn -0.0000 -1.0000 -0.0000
vn -0.0000 -0.0000 -1.0000
vn -0.0000 -0.0000 -0.0000
vn -0.0001 1.0000 -0.0000
vn -0.0000 -0.0000 1.0000
vn -0.7661 -0.0000 -0.6428
vn -0.4360 -0.0000 0.8999
vn 0.9239 0.3827 -0.0000
vn -0.7071 -0.0000 0.7071
vn 0.3827 -0.9239 -0.0000
vn 0.9239 -0.3827 -0.0000
vn 0.7071 -0.0000 -0.7071
vn 0.3827 0.9239 -0.0000
vn 0.4614 -0.0000 -0.8872
vn -0.9239 0.3827 -0.0000
vn -0.9239 -0.3827 -0.0000
vn -0.3827 -0.9239 -0.0000
vn -0.3827 0.9239 -0.0000
vt 0.125000 0.937500
vt 0.187500 0.937500
vt 0.187500 1.000000
vt 0.250000 0.937500
vt 0.250000 1.000000
vt 0.125000 1.000000
vt 0.062500 0.937500
vt 0.000000 1.000000
vt 0.000000 0.937500
vt 0.062500 1.000000
s 1
f 178/37/35 185/38/35 180/39/35
f 177/37/36 186/38/36 187/39/36
s 0
f 197/38/35 196/40/37 198/41/35
f 192/38/38 198/40/38 196/41/38
f 191/38/39 190/40/37 192/41/39
s 1
f 175/38/37 180/42/37 179/37/37
f 177/38/40 174/42/40 173/37/40
f 178/37/35 188/38/35 185/39/35
f 175/38/36 177/42/36 173/37/36
f 180/38/35 174/42/35 178/37/35
f 182/38/41 184/42/41 181/37/41
f 173/38/42 183/42/42 182/37/42
f 191/40/43 198/39/43 190/38/43
f 182/37/36 175/39/36 173/42/36
f 178/38/44 187/42/44 188/37/44
f 185/40/35 199/39/35 189/38/35
f 177/37/36 179/38/36 186/39/36
f 195/40/40 188/39/40 187/38/40
f 187/40/36 193/39/36 195/38/36
f 195/38/40 197/40/40 199/41/40
f 200/38/40 199/40/40 198/41/40
f 199/38/40 197/40/40 198/41/40
f 195/40/45 194/39/45 197/38/45
s 0
f 192/38/38 190/40/38 198/41/38
s 1
f 197/40/46 192/39/46 196/38/46
f 189/40/37 186/39/37 185/38/37
f 179/38/47 185/42/47 186/37/47
f 189/40/48 200/39/48 191/38/48
f 183/37/35 176/39/35 184/42/35
f 189/38/37 191/40/37 193/41/37
f 194/38/37 193/40/37 192/41/37
f 193/38/37 191/40/37 192/41/37
f 176/38/49 181/42/49 184/37/49
f 203/43/43 206/44/43 205/45/43
f 213/43/50 216/44/50 215/45/50
f 211/43/51 214/44/51 213/45/51
f 209/43/52 212/44/52 211/45/52
f 210/37/40 202/46/40 214/43/40
f 206/43/40 204/37/40 202/42/40
f 202/43/40 216/37/40 214/42/40
f 214/43/40 212/37/40 210/42/40
f 210/43/40 208/37/40 206/42/40
f 215/43/53 202/44/53 201/45/53
f 207/43/45 210/44/45 209/45/45
f 205/43/46 208/44/46 207/45/46
f 201/43/48 204/44/48 203/45/48
f 175/38/37 176/39/37 180/42/37
f 177/38/40 178/39/40 174/42/40
f 175/38/36 179/39/36 177/42/36
f 180/38/35 176/39/35 174/42/35
f 182/38/41 183/39/41 184/42/41
f 173/38/42 174/39/42 183/42/42
f 191/40/43 200/41/43 198/39/43
f 182/37/36 181/38/36 175/39/36
f 178/38/44 177/39/44 187/42/44
f 185/40/35 188/41/35 199/39/35
f 195/40/40 199/41/40 188/39/40
f 187/40/36 186/41/36 193/39/36
f 195/40/45 193/41/45 194/39/45
f 197/40/46 194/41/46 192/39/46
f 189/40/37 193/41/37 186/39/37
f 179/38/47 180/39/47 185/42/47
f 189/40/48 199/41/48 200/39/48
f 183/37/35 174/38/35 176/39/35
f 176/38/49 175/39/49 181/42/49
f 203/43/43 204/46/43 206/44/43
f 213/43/50 214/46/50 216/44/50
f 211/43/51 212/46/51 214/44/51
f 209/43/52 210/46/52 212/44/52
f 210/37/40 206/42/40 202/46/40
f 215/43/53 216/46/53 202/44/53
f 207/43/45 208/46/45 210/44/45
f 205/43/46 206/46/46 208/44/46
f 201/43/48 202/46/48 204/44/48
